<svg id="Laag_1" data-name="Laag 1" xmlns="http://www.w3.org/2000/svg" viewBox="0 0 18.35 18.35"><defs><style>.cls-1{fill:#68bd9a;}</style></defs><path id="Path_124" data-name="Path 124" class="cls-1" d="M16.29,4.17a1.35,1.35,0,0,0-1.49-.28l-2-2a.42.42,0,0,0-.62,0L8.42,5.66a.45.45,0,0,0,0,.63h0L10.34,8.2c-.11.07-.34.08-1,.07a3.12,3.12,0,0,0-2.5.81L2.16,13.71a1.69,1.69,0,0,0,0,2.38l0,0a1.72,1.72,0,0,0,2.38,0l5-5a.73.73,0,0,1,.53-.22,2.55,2.55,0,0,0,2.48-1L16.3,6.08A1.36,1.36,0,0,0,16.29,4.17ZM12.5,2.84l1.61,1.6-.63.63L11.87,3.46Zm-.26,3.48L10.62,4.71l.63-.63,1.61,1.61ZM10,5.33l1.61,1.61L11,7.59,9.35,6Zm5.67.14L11.94,9.22c-.78.78-.78.78-1.86.78a1.65,1.65,0,0,0-1.15.47l-5,5a.83.83,0,0,1-1.15,0,.8.8,0,0,1,0-1.13l0,0L7.45,9.7A1.91,1.91,0,0,1,8.8,9.15a7.79,7.79,0,0,0,1.72-.07,58.66,58.66,0,0,0,4.55-4.35.48.48,0,0,1,.66.14.46.46,0,0,1-.06.59Z"/></svg>