<svg id="Laag_1" data-name="Laag 1" xmlns="http://www.w3.org/2000/svg" viewBox="0 0 18.35 18.35"><defs><style>.cls-1{fill:#68bd9a;}</style></defs><g id="Group_41" data-name="Group 41"><path id="Path_110" data-name="Path 110" class="cls-1" d="M13.21,6s-.08-2.74-.08-2.77a.5.5,0,0,0-.32-.41L12,2.45a.51.51,0,0,0-.65.29h0L10.8,4.17l-.26,0V3.58a1.36,1.36,0,0,0-2.72,0v.54l-.26,0L7,2.74a.5.5,0,0,0-.65-.29h0l-.81.32a.48.48,0,0,0-.31.41S5.15,6,5.15,6a3.84,3.84,0,0,0-.55,2v7.36a.85.85,0,0,0,.85.85h7.46a.85.85,0,0,0,.84-.85V7.92A3.82,3.82,0,0,0,13.21,6Zm-.46-.62a3.83,3.83,0,0,0-.29-.28l.26-.65Zm-1-2.43a.05.05,0,0,1,.07,0l.81.31a.05.05,0,0,1,0,.07h0L12.1,4.76a4,4,0,0,0-.87-.46ZM9.18,2.66a.91.91,0,0,1,.9.77,1.36,1.36,0,0,0-1.81,0,.93.93,0,0,1,.91-.77ZM10,4.07H8.35a.91.91,0,0,1,1.21-.45A.9.9,0,0,1,10,4.07ZM5.67,3.21l0,0,.82-.31a.05.05,0,0,1,.07,0l.54,1.4a4,4,0,0,0-.87.46L5.67,3.25Zm0,1.19.25.65-.28.28Zm7.67,10.89a.4.4,0,0,1-.4.4H5.45a.4.4,0,0,1-.4-.4V7.92A3.41,3.41,0,0,1,8.46,4.51H9.9a3.41,3.41,0,0,1,3.41,3.41v7.37Z"/><path id="Path_111" data-name="Path 111" class="cls-1" d="M6.15,9.76a.65.65,0,0,0-.65.65v4.2a.65.65,0,0,0,.65.65h6a.65.65,0,0,0,.65-.65v-4.2a.65.65,0,0,0-.65-.65Zm6,5.06h-6a.21.21,0,0,1-.2-.21H6v-2.8h5.61v.5H12v-.5h.41v2.8a.21.21,0,0,1-.21.21Zm.21-4.41v.95H6v-.95a.21.21,0,0,1,.2-.21h6a.21.21,0,0,1,.21.21Z"/><path id="Path_112" data-name="Path 112" class="cls-1" d="M10.59,5.43H7.76V6.7h2.83Zm-.44.83H8.21V5.87h1.94Z"/></g></svg>