<svg id="Laag_1" data-name="Laag 1" xmlns="http://www.w3.org/2000/svg" viewBox="0 0 18.35 18.35"><defs><style>.cls-1{fill:#67bd9a;}</style></defs><path class="cls-1" d="M15,3.48H12.72V3.16a.5.5,0,1,0-1,0v.32H6.57V3.16a.5.5,0,1,0-1,0v.32H3.38a1.81,1.81,0,0,0-1.8,1.81v8.59a1.81,1.81,0,0,0,1.8,1.81H15a1.81,1.81,0,0,0,1.81-1.81V5.29A1.81,1.81,0,0,0,15,3.48Zm.48,10.4a.48.48,0,0,1-.48.48H3.38a.49.49,0,0,1-.48-.48V5.29a.48.48,0,0,1,.48-.48h2.2V5a.5.5,0,0,0,1,0V4.81h5.16V5a.5.5,0,0,0,1,0V4.81H15a.47.47,0,0,1,.48.48Z"/><path class="cls-1" d="M13.73,6.9H4.62a.34.34,0,1,1,0-.67h9.11a.34.34,0,0,1,0,.67Z"/><rect class="cls-1" x="4.57" y="7.89" width="1.53" height="1.53" rx="0.77"/><rect class="cls-1" x="4.57" y="9.81" width="1.53" height="1.53" rx="0.77"/><rect class="cls-1" x="4.57" y="11.72" width="1.53" height="1.53" rx="0.77"/><rect class="cls-1" x="6.45" y="7.89" width="1.53" height="1.53" rx="0.77"/><rect class="cls-1" x="6.45" y="9.81" width="1.53" height="1.53" rx="0.77"/><rect class="cls-1" x="6.45" y="11.72" width="1.53" height="1.53" rx="0.77"/><rect class="cls-1" x="8.34" y="7.89" width="1.53" height="1.53" rx="0.77"/><rect class="cls-1" x="8.34" y="9.81" width="1.53" height="1.53" rx="0.77"/><rect class="cls-1" x="8.34" y="11.72" width="1.53" height="1.53" rx="0.77"/><rect class="cls-1" x="10.22" y="7.89" width="1.53" height="1.53" rx="0.77"/><rect class="cls-1" x="10.22" y="9.81" width="1.53" height="1.53" rx="0.77"/><rect class="cls-1" x="10.22" y="11.72" width="1.53" height="1.53" rx="0.77"/><rect class="cls-1" x="12.1" y="7.89" width="1.53" height="1.53" rx="0.77"/><rect class="cls-1" x="12.1" y="9.81" width="1.53" height="1.53" rx="0.77"/><rect class="cls-1" x="12.1" y="11.72" width="1.53" height="1.53" rx="0.77"/></svg>