<svg id="Laag_1" data-name="Laag 1" xmlns="http://www.w3.org/2000/svg" viewBox="0 0 18.35 18.35"><defs><style>.cls-1{fill:#68bd9a;}</style></defs><path id="Path_106" data-name="Path 106" class="cls-1" d="M15.42,8.48a.63.63,0,0,1-.62-.63,6.52,6.52,0,0,0-1.92-4.63.63.63,0,0,1,.87-.9h0a7.78,7.78,0,0,1,2.29,5.52.63.63,0,0,1-.63.63Z"/><path id="Path_107" data-name="Path 107" class="cls-1" d="M2.93,8.48a.62.62,0,0,1-.62-.62A7.77,7.77,0,0,1,4.59,2.34a.63.63,0,0,1,.89.88A6.48,6.48,0,0,0,3.56,7.86.63.63,0,0,1,2.93,8.48Z"/><path id="Path_108" data-name="Path 108" class="cls-1" d="M15,12.24A4.17,4.17,0,0,1,13.55,9V7.3A4.38,4.38,0,0,0,9.8,3V2.31a.61.61,0,0,0-.62-.62.62.62,0,0,0-.63.62V3A4.37,4.37,0,0,0,4.81,7.3V9.05a4.21,4.21,0,0,1-1.49,3.2,1.09,1.09,0,0,0-.13,1.54,1.12,1.12,0,0,0,.84.38h10.3a1.09,1.09,0,0,0,1.09-1.09,1.06,1.06,0,0,0-.39-.83Z"/><path id="Path_109" data-name="Path 109" class="cls-1" d="M9.18,16.67a2.33,2.33,0,0,0,2.29-1.87H6.88A2.35,2.35,0,0,0,9.18,16.67Z"/></svg>