<svg id="Laag_1" data-name="Laag 1" xmlns="http://www.w3.org/2000/svg" viewBox="0 0 18.35 18.35"><defs><style>.cls-1{fill:#68bd9a;}.cls-2{fill:#efefef;}</style></defs><g id="Group_10" data-name="Group 10"><rect id="Rectangle_1508" data-name="Rectangle 1508" class="cls-1" x="1.9" y="3.02" width="12.49" height="2.39" rx="0.6"/><rect id="Rectangle_1509" data-name="Rectangle 1509" class="cls-1" x="1.9" y="6.66" width="12.49" height="2.39" rx="0.6"/><rect id="Rectangle_1510" data-name="Rectangle 1510" class="cls-1" x="1.9" y="10.48" width="12.49" height="2.39" rx="0.6"/><g id="Path_118" data-name="Path 118"><path class="cls-2" d="M12.08,14.81A1.24,1.24,0,0,1,11,14.16L8.25,9A1.18,1.18,0,0,1,8.17,8a1.2,1.2,0,0,1,1.16-.86,1.22,1.22,0,0,1,1.08.65h0L12,10.88,14.75,5.2a1.22,1.22,0,0,1,1.1-.69,1.31,1.31,0,0,1,.52.11h0A1.22,1.22,0,0,1,17,6.25l-3.77,7.87a1.2,1.2,0,0,1-.9.67h0Z"/><path class="cls-1" d="M12.08,14.29h.11a.7.7,0,0,0,.52-.39L16.48,6a.7.7,0,0,0-.33-.94.8.8,0,0,0-.3-.06.69.69,0,0,0-.63.39L12.05,12l-2.1-4a.7.7,0,0,0-.62-.37A.61.61,0,0,0,9,7.78a.69.69,0,0,0-.3.94l2.75,5.2a.7.7,0,0,0,.62.37m0,1a1.77,1.77,0,0,1-1.55-.93h0L7.79,9.21a1.75,1.75,0,0,1-.12-1.33,1.72,1.72,0,0,1,.85-1,1.66,1.66,0,0,1,.81-.21,1.73,1.73,0,0,1,1.54.94L12,9.73,14.28,5a1.75,1.75,0,0,1,1.57-1,1.79,1.79,0,0,1,.75.17h0a1.74,1.74,0,0,1,.82,2.32l-3.77,7.86a1.79,1.79,0,0,1-1.28,1h0Z"/></g></g></svg>